<svg id="Layer_1" data-name="Layer 1" xmlns="http://www.w3.org/2000/svg" viewBox="0 0 136 151.04"><defs><style>.cls-1{fill:#fff;}</style></defs><title>ron-pasillas-logo</title><path class="cls-1" d="M77,149.5A66.5,66.5,0,1,1,143.5,83,66.58,66.58,0,0,1,77,149.5Z" transform="translate(-9 0.04)"/><path d="M77,18A65,65,0,1,1,12,83,65.07,65.07,0,0,1,77,18m0-3a68,68,0,1,0,68,68A68,68,0,0,0,77,15Z" transform="translate(-9 0.04)"/><polygon class="cls-1" points="106.67 25.38 108.42 29.71 109 33.04 43 32.04 44.5 15.54 67 6.04 91 9.04 101 17.04 106.67 25.38"/><path d="M120.11,60.78c-1.06-3.87-.82-4.91.95-9.05a10.27,10.27,0,0,0,.67-5.19,2,2,0,0,1,.72-.77l.55,0-.19-.52c-.26-.72-1.18-3.08-2.26-3.28l-.09,0a9,9,0,0,0-1-1.72A5.4,5.4,0,0,1,119,37.5a27.68,27.68,0,0,0-3.34-12.85l0,0h0l-.2-.37a32.86,32.86,0,0,0-8.09-10.17c0-1.15-.88-2.15-1.62-3a4,4,0,0,1-.78-1,26.4,26.4,0,0,0-1.49-3.58l-.05-.1-.1-.05-.34-.23C95.42,1,88.79-.07,84.53,0A45.53,45.53,0,0,0,72.19,1.74a59.46,59.46,0,0,0-15.59,7.2C44.49,16.67,39.11,20.81,36,24.75S29.2,40.69,30.94,58.27l0,0c-.47.31-2.5,3.25-2.3,4.31.16.84.39,4.72.39,5.08,0,.15,0,1.13-.08,2v.05c0,.9-.08,1.84-.08,2.06a22.45,22.45,0,0,0,.93,5.94l.18.47a16,16,0,0,0,1.89,3.91c1.28,1.81,1.69,2.32,2,2.45a1.26,1.26,0,0,0,.07.68l0,0,.15.19a16.7,16.7,0,0,0,4.55,2.69,13.81,13.81,0,0,0,3.1.82,29.57,29.57,0,0,1,2.68,7c.09.42.17.81.26,1.18.51,2.29.91,4.1,1,10.32.05,5.89-.13,8.59-.19,9.32l-1.22.55-.4,1.74L48,130.85l5.83,9.58,4.29,6.93,1.47.55-4.94-8-5.76-9.45-4.1-11.4.23-1,.47-.21v0l.71.14,0-.24a2.82,2.82,0,0,0,0-.33.48.48,0,0,0,.1-.54l-.06-.1c0-.64.07-1.48.1-2.38h.23v-.24a100,100,0,0,0-.41-14.5,37.72,37.72,0,0,0-3.05-10.54A12.31,12.31,0,0,0,47.3,88l.22-.11,0-.08.14-.06-.09-.23.12-.07-.36-.63-.21.12c-.81.46-4.2,1.5-6.24.93a18.84,18.84,0,0,1-6.31-3,2.36,2.36,0,0,1,.07-.59l0-.21L34.49,84a15.69,15.69,0,0,1-4.07-7.21,20.84,20.84,0,0,1-.59-7.14,15.9,15.9,0,0,0,0-2.55l0-.41c-.21-2-.38-3.74-.34-4,0,0,.87-3.84,3.77-4.21,2.51-.32,6.12-.13,8.5,5.26l.1.22.66-.29-.1-.22-.18-.4.06,0-.47-1.27c1.17,0,3,.23,3.29,1.16l.08.31v.42l0,.15.29.64.06.22.87,3.37s0,.06,0,.07c-.1.17-.08.46.44,1.63l.65,2.51.7-.18-.12-.46.11,0L48,70.29l.21-.4,0-.47a9.62,9.62,0,0,1,.61-1.13,6.67,6.67,0,0,0,.48-1A4.65,4.65,0,0,1,49.88,66a6.71,6.71,0,0,1,1.48-1.31l.6,1.74L52,67l0,.24.71-.12,0-.24c-.24-1.43-.43-2.8-.55-3.94l0-3.1L51.9,56.6c-.14-1.77-.34-3.43-.58-4.81-.07-.41-.15-.79-.22-1.13a26.68,26.68,0,0,1-.58-3.5l0-2a4.87,4.87,0,0,1,.3-1.12l.51-.91,1.55-1.45,2.21-1.31.54-.28.15-.08,0-.17s.06-.27.19-.65l.55-1.28,1.2-1.67,1.7-1.14h0l.13-.05.37-.13-.16-.36a9.31,9.31,0,0,1-.35-1l-.64-2.58a29.31,29.31,0,0,1-.35-3.16,6.65,6.65,0,0,0,0-1.24l0-.13.22-.48-.52,0A2.89,2.89,0,0,0,55.58,27a18.73,18.73,0,0,1-.26-2.32l0-2.87c.43-1.4,1-3.12,1.15-3.66l.17-.35c.33-.56,1.23-2,1.73-2.82l1.11-.85L61,13.13l4.38-2L69,9.88l2.38-.39L82,9a59.05,59.05,0,0,1,7.62.45h0l.07,0c.55-.14,1.09-.26,1.66-.36l3.6.41,2.75.1,2.24.74.1.07v0l.18.1.16.14,0,0,.57.29.64.32,1.46.86-.08.17.22.1c1.47.69,7.83,5.32,11.52,12.21l.08.14L115,25a29,29,0,0,1,2.84,8.08h0l0,.24a30.36,30.36,0,0,1,.33,5.78c-.2.53.28,1.31.85,2.22a10.6,10.6,0,0,1,.6,1.05,4.58,4.58,0,0,1-1.78.43c-.44,0-1.15-.1-1.79-.17l-.93-.09a4.52,4.52,0,0,0-2-.58,1.88,1.88,0,0,0-.54.07l-.14,0-.07.13a1.46,1.46,0,0,0-.12.32,1.86,1.86,0,0,1-.45.83c-3.65,3.47-3.6,3.71-3.56,3.92a6.62,6.62,0,0,1,0,1.17l-.09,1.2.74-.95a2.8,2.8,0,0,1,2-1.07l.78,0c1.23,0,2.78-.14,2.84-.15h0a21.6,21.6,0,0,1,2.89-.62h.05a3.42,3.42,0,0,1,1,.23,2.71,2.71,0,0,0,1.2.22A8.61,8.61,0,0,0,120.8,47a11.71,11.71,0,0,1-1.43,6.45c-1.35,2.46-.52,5.93.91,10.94.88,3.08,1.52,5.79,1.55,5.89a20.79,20.79,0,0,1-.12,7.63c-.34,1.54-.82,3.58-1.35,5.74h0c-.79,2.21-3.91,13.67-4.51,16.43-2.23,7.26-4.14,12.14-5.66,14.49-4.21,6.49-11.63,8.59-22.05,6.24s-20.95-10.9-27.92-16.56l-1-.84-.07-.06h0c-.65-.52-1.39-1.12-2.07-1.65l-.19-.15-.45.57.19.15c.69.54,1.46,1.16,2.12,1.69a127.83,127.83,0,0,0,18.86,13.63,43.43,43.43,0,0,0,14.52,4.89,26.44,26.44,0,0,0,3.5.25c.56,0,1,0,1.35,0l-.36,2.72-.23,2.81c0,.55,0,2.34,0,2.44v.06a5.84,5.84,0,0,0,0,.62l0,.24.54,0,.29,3.38,1.06,7.36.23,4,1-.17-.23-4-1.06-7.37-.48-5.6-.07-3.62h-.09c.15-1.35.3-2.4.43-3a19.09,19.09,0,0,0,3.66-.66,15.16,15.16,0,0,0,3.81-1.63,8.76,8.76,0,0,1,1-.52c1-.36,4.13-3.73,4.93-5.3.7-1.37,1.67-3.94,2.19-5.33v0l.22-.57.08-.23h0c.82-2.19,1.7-4.8,2.62-7.78h0l.06-.26c2.6-8.47,4.94-17.92,5.88-22.21,1.23-5.66-.45-11.17-1.68-15.21C120.5,62.13,120.28,61.42,120.11,60.78Zm-13.68-47.5,0,.12,0,0Z" transform="translate(-9 0.04)"/><path d="M42.56,77.4c-.68-.43-.31-1.48,0-2.07a6.47,6.47,0,0,0,0-3.58l0-.12-.47.12,0,.12,0,.21-.2,0,0,.2c.3,1.61.17,2.27,0,2.53a3.19,3.19,0,0,0-.49,1.79c0,.34.22,1.11.64,1.32a6.45,6.45,0,0,1,1.19,1,.88.88,0,0,1,.12.54.79.79,0,0,0-.09.23c-.07.27-.12.31-.25.3h-.17A1.75,1.75,0,0,1,41,78.72l-.07-.17a1.36,1.36,0,0,0-.92-.73,1.5,1.5,0,0,0-1.3.23l-.1.07.29.39.1-.07a1,1,0,0,1,.88-.15.89.89,0,0,1,.6.45l.06.16a2.24,2.24,0,0,0,2.39,1.6h.17v-.12l0,.12c.73,0,.88-.19,1-.7,0-.08,0-.18.06-.29C44.35,78.73,43.4,77.93,42.56,77.4Z" transform="translate(-9 0.04)"/><polygon points="105.78 60.19 101.99 58.5 99.73 57.2 99.24 56.8 98.93 57.17 103.18 60.62 103.49 60.25 101.97 59.02 105.58 60.63 105.78 60.19"/><path d="M98.19,44.36c-.56,0-1.23-1.36-1.44-1.86l-.05-.13-.12.07s-.44.3-.53,1.36a17.13,17.13,0,0,0-1.33-1.1A3.88,3.88,0,0,0,92,40.91h-.05l-.73.66c-.31,0-2.34.22-4,.22a5.14,5.14,0,0,1-1.94-.21c-1-.5-3.15-1.29-3.18-1.3a20.2,20.2,0,0,0-4.74-.9H77a4.46,4.46,0,0,0-1.85,1.34l-1.44,2.08L72,44.15a23.26,23.26,0,0,0-2.37,3.19l-2,5.07.43-.46s1.36-1.45,1.85-2c.77-.92,2.54-.73,2.55-.73h.05l2.85-2.36s3.09-2.35,5.87-2.47L87.55,46a6.56,6.56,0,0,0,1.51.14c1.09,0,2.23-.13,2.24-.13h0A6.89,6.89,0,0,1,94,45.08c.28.55,2.25,1.48,2.87,1.77l0,0h0a2.15,2.15,0,0,0,1.43-2.13C98.4,44.43,98.27,44.37,98.19,44.36Z" transform="translate(-9 0.04)"/><path d="M89.53,78.36l-2.41,2.76a77.6,77.6,0,0,1-5.22,6.19c-.37.36-2.1,3.63-1.68,4.64l1.38,3.34L82,95.1l-.81-2a4.42,4.42,0,0,1-.4-1.59,6,6,0,0,1,1.62-3.75A21.34,21.34,0,0,0,84,85.91l1.87-2.44c.94-1.16,1.61-2,1.61-2l2.4-2.74Z" transform="translate(-9 0.04)"/><path d="M107.08,78.94a4.08,4.08,0,0,0-2-2.08,9.45,9.45,0,0,0-2.34-.72l-1.51.06c-.8,0-2.4,1.47-2.72,1.75l-.09.08.33.36.09-.08.26-.23.12,0c.14-.06.23-.08.33,0a.79.79,0,0,0,.42.28c.38.08,1.52-.58,1.79-.74s1.14-.17,1.63-.21a1.24,1.24,0,0,1,.86.37h0s.42.63.64.91.67.22,1.53.08a3.34,3.34,0,0,1,.18.35l0,.11.45-.18Z" transform="translate(-9 0.04)"/><path d="M98.84,80H96.72a10.39,10.39,0,0,1-1.94-.54,9.65,9.65,0,0,1-2.07-2.32,3.33,3.33,0,0,1,0-1.87l0-.12-.47-.12,0,.12s0,.1-.05.23L92,75.34l0,.12A3.75,3.75,0,0,0,92,77a5.37,5.37,0,0,0,1.13,1.79c.13.14.23.27.34.4a2.69,2.69,0,0,0,1.67,1.13l.83.21a3.69,3.69,0,0,0,1.33.2l.44,0a2.12,2.12,0,0,1,.89,0l.1.06,0-.05.24.36.4-.27Z" transform="translate(-9 0.04)"/><path d="M114.28,76.74a9.75,9.75,0,0,0-.85-3.67l-.06-.11-.43.23.06.11a9.52,9.52,0,0,1,.8,3.47,2.12,2.12,0,0,1-1.29,2c-.16.07-.78.27-1.45.46l.81-.29.55-.74-.09,0a1,1,0,0,0,.16-.63l0-.12-.47.09,0,.12a.75.75,0,0,1-.5.63l-1.37.42c-.09,0-.32.11-.58.22l-.06-.1-.11.06-.63.31-.06,0L108,80.45l.11.07-.14.24v1.39h.48V80.89l.57-1a3.4,3.4,0,0,1,1.11-.56l.59.06-.89.25-.12,0,.13.46.12,0s2.39-.66,2.78-.85A2.6,2.6,0,0,0,114.28,76.74Z" transform="translate(-9 0.04)"/><path d="M66.5,73.21c0-.56-.19-1-.54-1s-.63.45-.63,1,.28,1,.63,1S66.5,73.76,66.5,73.21Z" transform="translate(-9 0.04)"/><path d="M107.8,108.91a17.35,17.35,0,0,0-3.72-1.35,20.82,20.82,0,0,0-5,.66c-1.42.27-3,2.52-3.13,2.78l-.07.1.4.27.07-.1c.43-.65,1.78-2.37,2.83-2.57A21.64,21.64,0,0,1,104,108a17.26,17.26,0,0,1,3.58,1.31l.11.05.21-.43Z" transform="translate(-9 0.04)"/><path d="M114.65,91l-.36-.32-.08.09s-1.14,1.25-1.41,1.47a24.34,24.34,0,0,1-3.36,0c-.66,0-1,0-1.17,0a3.48,3.48,0,0,0-1.13.48l-.39.21c-.25.09-3.51.06-6.5,0a16.37,16.37,0,0,0-2.64-.3,20.45,20.45,0,0,0-2.54.61l-.44.12,0,0,0-.07-1.74.35L91,93.8H91c-.79,0-1.27,0-1.54,0l.52-.15-.66,0a27.14,27.14,0,0,0,3.82-.69c1.08-.35,2.4-.72,3.27-1l1-.28c.5-.17,4.23-.75,4.49-.76a3.31,3.31,0,0,1,1.82.61,2,2,0,0,0,.62.29,3.85,3.85,0,0,0,1.32-.07,11.58,11.58,0,0,0,1.3-.49,20.16,20.16,0,0,1,2.53-.77,6.75,6.75,0,0,1,3.08.71,1.37,1.37,0,0,0,.46.16h.1l.63-.6-.33-.35-.46.43-.2-.09a12,12,0,0,0-1.26-.48,6.29,6.29,0,0,0-1.15-.44h0a11.77,11.77,0,0,0-3.71.91l-.11,0,0,.13a7.78,7.78,0,0,1-1,.36,3.33,3.33,0,0,1-1.14.06,2,2,0,0,1-.44-.23l-.14-.08,0-.06-.11-.06-.09-.07a2.55,2.55,0,0,0-2.36-.43l-1.89.3c-.82.12-1.47.22-1.88.33l-.12,0,0,.09-.19.05-.91.26h0c-.87.24-2.19.61-3.28,1a33.63,33.63,0,0,1-4.31.74h-.12l0,.2a.22.22,0,0,0-.17,0h-.17a1.68,1.68,0,0,0-.55.09c-.07,0-.16.12-.32.45l-.07.15.46.48.54-.45.41-.12.44.25.09,0,.09,0c.1,0,.86,0,1.28,0l0,.09,1.75.35H93l2.71.12c.28,0,2.83-.18,2.85-.18a16.37,16.37,0,0,1,1.92.05l.37.11a9.61,9.61,0,0,0,1.95.5h.51a.93.93,0,0,1,.46.36c.15.32.68,1.11.69,1.12l.07.1.4-.27-.07-.1s-.52-.78-.65-1.06l-.08-.14h.1l1.43-.68c.08,0,.63-.09.93-.12,1.21-.13,1.41-.17,1.51-.29s.39-.28,1-.7l0,.07.1-.06a1.83,1.83,0,0,1,.73-.23h.26c.34,0,.41,0,.44.17l0,.12.13,0a5.37,5.37,0,0,1-.4,3.06l0,.11.12,0a1.29,1.29,0,0,1-.21.27,6,6,0,0,1-3.63,1.38h-.12v.48h.12a6.32,6.32,0,0,0,4-1.51c1-.94.92-3.6.88-4.27a4.43,4.43,0,0,0,1.26-.34l0,0,.07,0a.42.42,0,0,0,.14-.07l0,0,.12-.07h0c.38-.36,1.18-1.24,1.36-1.43l-.09-.08.09.08Zm-7.08,2c0,.26,0,.54,0,.66a13.81,13.81,0,0,1-1.5.23s-3.63,0-4,0c0,0-.05,0-.06,0s0-.22.08-.47c4.52.09,4.78,0,4.86-.07l.43-.22Zm-11.38,1v0Zm5.08-.12-.35,0a5.07,5.07,0,0,1-.8,0,.1.1,0,0,1,.06.08h-.24A.1.1,0,0,1,100,94a8.17,8.17,0,0,1-1.27,0,3.37,3.37,0,0,1-.76-.85,19.21,19.21,0,0,1,2.19.29h.06l1.56,0C101.5,93.79,101.33,93.93,101.27,93.93Zm-3.42,0-.27,0a6.81,6.81,0,0,1-1.2,0,.09.09,0,0,1,0,.08l-.24,0a.08.08,0,0,1,0-.06,3.51,3.51,0,0,1-.72,0l-.29,0s-.11,0-.27-.18l.25-.07,0-.12h0l0,.12h0a22.27,22.27,0,0,1,2.39-.59A3.61,3.61,0,0,1,97.86,93.93Zm5.12.54a.1.1,0,0,1-.06-.09h.24a.1.1,0,0,1-.05.1,4.79,4.79,0,0,1,.93,0h0l.93-.12h.13l-1,.46c-.43,0-1.15,0-1.35,0a8.18,8.18,0,0,1-1.37-.36A11.53,11.53,0,0,1,103,94.47Z" transform="translate(-9 0.04)"/><path d="M97.88,97.92c-.07,0-1.7-.77-2.78-1.13-.71-.24-2.09-.9-3.19-1.43l0,0c-.54-.26-1-.48-1.27-.59l-.11,0-.09.21-.17-.06-.12,0-.12.47.12,0c.14,0,1.28.58,2,.94l1.29.61c.94.43,4.53,1.59,4.93,1.72l.12,0,.15-.46-.12,0Z" transform="translate(-9 0.04)"/><path d="M104.94,89.91l.07.1.08-.05.29.5.42-.24-.9-1.56a7.28,7.28,0,0,1-.07-3.17,2.37,2.37,0,0,1,.81-.59l.11-.05-.21-.43-.11.05a2.82,2.82,0,0,0-1,.77,1.27,1.27,0,0,0-.13.43v0s-.23,1-.26,1.22a8.21,8.21,0,0,0,.13,1.68A11.59,11.59,0,0,0,104.94,89.91Z" transform="translate(-9 0.04)"/><polygon points="83.91 128.88 81 133.17 80.22 134.38 77.49 134.99 75.43 134.56 73.37 135.9 73.64 136.3 75.52 135.07 77.5 135.48 80.52 134.8 81.4 133.44 84.31 129.16 83.91 128.88"/><path d="M104,115.46l-.1.07a10.38,10.38,0,0,1-1.65.44l-.09,0-2.42,3.2.48.58.17,1,.48-.08-.19-1.15-.32-.39,2.08-2.75a8,8,0,0,0,1.75-.51l.1-.07Z" transform="translate(-9 0.04)"/><path d="M92.73,55.83a12.32,12.32,0,0,0-.38-1.62,2.58,2.58,0,0,0-.4-.55,7.53,7.53,0,0,1-.87-1.59c-.06-.17-.2-.49-.37-.86a12.56,12.56,0,0,1-.5-1.17.81.81,0,0,0-.36-.38l.26-.18L90,49.27l-.43.21-.07,0,.09-.21-.37-.16.13-.21-.19-.14-.2.24-.11-.05.07-.1-.18-.16-.15.14-.25-.11.16-.26-.2-.14-.26.3-.39,0,.71-1.35-1.14,1.37H87l-.36,0,.16-.41-.22-.11-.3.5h-.39l-.16-1.33-.15,1.31-.22,0-.14-1.22L85,48.5l-.17,0-.2,0-.15-1.26-.16,1.32-.24,0L84,47.34l-.16,1.35-.72.14-2.25.35,0,.19-1.65.48a36,36,0,0,0-6.64,3.59l-.1.07.27.4.1-.07s2.22-1.49,4.28-2.56L78.18,51a11.72,11.72,0,0,0-1.48.85L73.92,54l.3.38,1-.79a2,2,0,0,0-.54.94l-.13.6.34-.51a1.93,1.93,0,0,1,1.51-.76l.85,0,2.56.5a2.3,2.3,0,0,1,.81.18.15.15,0,0,0,0,.12c0,.06.17.23,2.24,0a4.07,4.07,0,0,0,1,.13,10.1,10.1,0,0,0,1.1-.11c.07,0,.4,0,.69,0l.24,0a3,3,0,0,0,.57.06c.25,0,.65,0,.65,0l.34,0-.06-.06H89a4.87,4.87,0,0,0,1.22.45,4.72,4.72,0,0,0,1.61-.21l0-.06V55a3.88,3.88,0,0,0-.42-.9l-.94-1a9.44,9.44,0,0,1-.78-1.83l-.18-.91.83,2a6.28,6.28,0,0,0,1.05,1.48,4.17,4.17,0,0,1,.46.58,12.1,12.1,0,0,1,.35,1.52l0,.12.48-.08ZM76.09,53.52a.55.55,0,0,1,0-.34l0-.24-.15.09L77,52.18a32.81,32.81,0,0,1,3.57-1.86l.32-.13c0,.06,0,.12,0,.14a8.09,8.09,0,0,0,0,1.78,6.33,6.33,0,0,0,.75,1.24,3.81,3.81,0,0,0,1,.71l-.94.16-1.36-.14-3.17-.58a4.37,4.37,0,0,0-.65-.06,1.35,1.35,0,0,0-.46.06Zm11.34-1.86-.12,0,.12,0h0a.27.27,0,0,0,0-.07l1.1,1.49a3.85,3.85,0,0,0,.26.64l-.7.54H86.78l-.2-.11C87.08,53.77,87.32,52.48,87.43,51.66Z" transform="translate(-9 0.04)"/><path d="M118.25,54.44l.06-.3.09-.56.28,0,1.61-.76-1.67.37h-.23v-.23l.23-.07.67-.34-.09-.22-.7.21-.06,0,.33-.09,0-.12,0-.11h.08l1-.61-1.16.25c-.06-.17-.13-.35-.2-.52l.57-1.31-.75.91-.13-.26,1-1.36-1.13,1.06A2.41,2.41,0,0,0,116,48.91l-2.52,0h-.75a14,14,0,0,0-3,.72l-.23.07a4.65,4.65,0,0,0-1.87,2.27,9.65,9.65,0,0,1-.84,2.92,7.67,7.67,0,0,1,.88-4l.06-.11-.43-.23-.06.11s-.08.16-.18.37l-.1-.06-.06.1A7.59,7.59,0,0,0,106,54.4a6.86,6.86,0,0,0,1.33,3.23l0,.09.15.36c.3.81.64,2.15.68,2.31l1.51,4.83c.29,1.06.49,1.84.53,2L111.38,71l.46-.14-.47-1.55-1.21-4.26c-.6-2.23-1.42-5.14-1.87-6.33-.09-.23-.2-.53-.34-.86-.05-.13-.1-.26-.15-.35-.25-.59-.56-1.3-.92-2.11l0-.11.17.08.05-.11A10.46,10.46,0,0,0,108,52c0-.21,1-1.69,1.53-1.85l.23-.07a14.09,14.09,0,0,1,2.9-.7h.19v.18H113c.17,0,.53,0,.89,0a7.67,7.67,0,0,0,1.93,0c.45-.15.94.17,1.36.9l.16.28-.28.16c-.19-.06-.85-.27-1-.31l-.16-.1h-.08c-.34,0-2.08-.05-2.83,0a4,4,0,0,0-2.15.79A25.28,25.28,0,0,0,108.66,53l-.57.83-.66.89.39.29.48-.65h0l.15-.23.63-.63,1.2-.83-.18-.26.18-.14v0c0,.13.37,1.27.47,1.48l.61,1.24-2.62.29-.79.27-.08-.23-.46.16.24.69.35-.12v0l.87.19.68-.16h3.33l1.13.36H115l.59-.09-.57.27h1.26l.88-.42.1-.08.1.16.72-.46.18-1h0l1.71-.4ZM113,55.64h-2.94l2.12-.23v-.12a8.82,8.82,0,0,1,1.44,0l1.37.38,0-.07a5.28,5.28,0,0,0,.62-1.09l.12-.41a9.75,9.75,0,0,0,.37-1.47c0-.08,0-.18,0-.28a4.62,4.62,0,0,1,0-.71.57.57,0,0,0-.1-.34l.48.4.33.74.09,1.26,0,.82-.3.55-.91.34.07.23,1.16-.23.37-.81.09-1.24.07-.6.09.19.17,1-.24,1.15-.6.66-.61.29,0-.26-1.29.2h-.82Zm-4.13.13h0l.15,0Zm8.8-4.46-.2-.12.09-.08.12.2Z" transform="translate(-9 0.04)"/><path d="M37.6,80l-.6-.1.56-1.19-.44-.21L37,78.8l-.15,0-.06.17a1.65,1.65,0,0,1-1,1.11l-.11,0,.06.15-.45.3-1.42-1-.28.39,1.69,1.21.22-.15.1.12.71-.6.5-.1.64.11.87.25.14-.46Z" transform="translate(-9 0.04)"/><path d="M33.28,78a11.53,11.53,0,0,0-1.26-2l0-.29.18-.61V75a3.45,3.45,0,0,1,0-.53.54.54,0,0,0-.06-.29L32,74a2,2,0,0,1-.26-.76,36.76,36.76,0,0,1,.06-4.06l.5-1.19.89-1-.35-.32.16-.38-.44-.19-1.22,2.9v.06a37.33,37.33,0,0,0-.06,4.19,1.88,1.88,0,0,0,.06.32h0l.27,2.48,0,.05a12.77,12.77,0,0,1,1.21,1.9l0,.12.47-.1Z" transform="translate(-9 0.04)"/><polygon points="36.46 82.51 35.96 80.95 35.5 81.1 35.83 82.11 34.57 83.24 34.65 83.33 34.27 83.64 33.7 85.09 34.15 85.27 34.67 83.93 35.4 83.33 36.22 82.7 36.3 82.78 36.26 82.67 36.46 82.51"/><path d="M94.41,70.19l-.2-.13s-1,1.56-1.81,2.68h0c-.18.26-.35.47-.5.65a2,2,0,0,0-.47.75c-.32.16-1.29.68-1.09,1.15a3.57,3.57,0,0,1,.07,1.7l.2.13.73-1,.06-1.27.62-.5.92-1.48,0-.13Z" transform="translate(-9 0.04)"/><path d="M41.12,69.55a8.78,8.78,0,0,1-.81-2.15c-.12-.4-.24-.78-.34-1.06l-.17-.51a14.89,14.89,0,0,0-2.61-5.2c-1.71-1.88-2.9-1.28-3.86-.8l-.15.08.08.16-.06,0,.16.46.11,0,.38-.16a1.75,1.75,0,0,1,2.07.13,7.73,7.73,0,0,1,2.31,3.1l-.16.92c0,.33,0,.89.18,1a4.83,4.83,0,0,1,.54.91l.66,1.43a5.18,5.18,0,0,0,.24.64l.12.3c-.11.09-.38.27-.54.37l-.34.23a11.13,11.13,0,0,1-1.42.58l-.65.16.12.47,1.73-.43-.68.72L38,71c-.79,2.18-.68,2.28-.56,2.39l.09.08.25-.27,0,0h.1a14,14,0,0,1,.61-2l.08-.08,1-.64,1-.51.06.08c.1.14.3.4.15,1.21l0,.12.2,0a3.84,3.84,0,0,1-.17.69l0,.11.45.16,0-.11C41.42,71.6,41.62,70.06,41.12,69.55Zm-3.56,3.65h0l0,0h0Z" transform="translate(-9 0.04)"/><path d="M37.89,78.16h0l.05-.16-.11,0a6.83,6.83,0,0,1-.63-.43l-.52-.78-.61-1.26-.43.21.5,1-.93-.2L34.33,76l-.26.41L35,77l1.34.3.66.91,1.17.71.25-.42Z" transform="translate(-9 0.04)"/><path d="M39.78,81.1l-.11,0c-.13,0-.54.25-.56.26l-.09,0-.39,1.16.46.15.33-1,.41-.19.11,0Z" transform="translate(-9 0.04)"/><path d="M107.17,102.49a4.29,4.29,0,0,0-1.69-.35l-.15-.09a2.43,2.43,0,0,0-1-.39c-.41,0-.53,0-.69.19a1.06,1.06,0,0,1-.31.22l-.27.15a1.34,1.34,0,0,1-.94.28l-.12,0-.07.48.12,0,.23,0a1.53,1.53,0,0,0,.71-.18l0,0,.1,0,.63-.21.06,0,.32-.26.32.05.62.29.3.13.06,0h0l.68,0h.12v-.09l.82.23h2v-.48Z" transform="translate(-9 0.04)"/><ellipse class="cls-1" cx="75.5" cy="51.77" rx="0.8" ry="1.01"/><ellipse class="cls-1" cx="76.69" cy="52.06" rx="0.8" ry="1.01"/><ellipse class="cls-1" cx="75.36" cy="53.22" rx="0.65" ry="0.54"/><ellipse class="cls-1" cx="104.01" cy="53.5" rx="0.4" ry="0.74"/><ellipse class="cls-1" cx="105.07" cy="53.52" rx="0.84" ry="1.1"/></svg>