<svg xmlns="http://www.w3.org/2000/svg" viewBox="0 0 60 60"><defs><style>.cls-1{fill:#1da1f2;}.cls-2{fill:#fff;}.cls-3{fill:none;}</style></defs><title>twitter-icon</title><g id="Layer_2" data-name="Layer 2"><g id="Layer_1-2" data-name="Layer 1"><g id="Dark_Blue" data-name="Dark Blue"><rect class="cls-1" width="60" height="60"/></g><g id="Logo_FIXED" data-name="Logo FIXED"><path class="cls-2" d="M23,45.24c14.15,0,21.89-11.72,21.89-21.89,0-.33,0-.66,0-1a15.65,15.65,0,0,0,3.84-4,15.36,15.36,0,0,1-4.42,1.21,7.72,7.72,0,0,0,3.38-4.26,15.42,15.42,0,0,1-4.89,1.87,7.7,7.7,0,0,0-13.11,7,21.84,21.84,0,0,1-15.86-8,7.7,7.7,0,0,0,2.38,10.27,7.64,7.64,0,0,1-3.49-1v.1a7.7,7.7,0,0,0,6.17,7.54,7.68,7.68,0,0,1-3.47.13,7.7,7.7,0,0,0,7.19,5.34,15.44,15.44,0,0,1-9.55,3.3,15.66,15.66,0,0,1-1.83-.11A21.78,21.78,0,0,0,23,45.23"/><rect class="cls-3" width="60" height="60"/></g></g></g></svg>